PathFileType	4	(X/Y/Z)	./resultDataOpenSim/trcMotMarkerGrf/sub10/qtm-03-08.trc
DataRate	CameraRate	NumFrames	NumMarkers	Units	OrigDataRate	OrigDataStartFrame	OrigNumFrames
250.000000	250.000000	6	24	m	250.000000	1	496
Frame#	Time	L.Toe.Tip			R.Toe.Tip			L.Ankle.Lat			R.Ankle.Lat			L.Ankle.Med			R.Ankle.Med			L.Heel			R.Heel			L.Knee.Lat			R.Knee.Lat			L.Knee.Med			R.Knee.Med			L.Thigh.Upper			R.Thigh.Upper			L.ASIS			R.ASIS			V.Sacral			L.Acromium			R.Acromium			C7			L.Elbow			R.Elbow			L.Wrist.Lat			R.Wrist.Lat
		X1	Y1	Z1	X2	Y2	Z2	X3	Y3	Z3	X4	Y4	Z4	X5	Y5	Z5	X6	Y6	Z6	X7	Y7	Z7	X8	Y8	Z8	X9	Y9	Z9	X10	Y10	Z10	X11	Y11	Z11	X12	Y12	Z12	X13	Y13	Z13	X14	Y14	Z14	X15	Y15	Z15	X16	Y16	Z16	X17	Y17	Z17	X18	Y18	Z18	X19	Y19	Z19	X20	Y20	Z20	X21	Y21	Z21	X22	Y22	Z22	X23	Y23	Z23	X24	Y24	Z24

1	0	-1.460974	0.038734158	-0.12690734	-0.97547266	0.075080107	0.054747604	-1.5953845	0.066942465	-0.14276043	-1.1148606	0.064981704	0.057261536	-1.5768311	0.087068623	-0.061284596	-1.0855955	0.10073005	-0.016964537	-1.6643497	0.041463676	-0.099626382	-1.1457314	0.031080853	-0.0057694317	-1.4613637	0.43237405	-0.17501479	-1.1765931	0.45830802	0.10038344	-1.458344	0.40730197	-0.053540078	-1.1522041	0.4700122	-0.026679026	-1.3737231	0.81615718	-0.23017939	-1.3302931	0.84681524	0.15049179	-1.2963431	0.91790887	-0.17631865	-1.2694184	0.93927768	0.067544909	-1.47898	0.93826645	-0.032457512	-1.2884601	1.3808647	-0.22825051	-1.3199274	1.3939533	0.095315196	-1.3821677	1.4273023	-0.078969434	-1.4014148	1.0482043	-0.30078911	-1.5002442	1.0946459	0.14477444	-1.2161425	0.88244591	-0.28464339	-1.4279016	0.88617735	0.25209603
2	0.004	-1.460572	0.038745184	-0.1273901	-0.96230758	0.076525427	0.054755103	-1.5950506	0.067275446	-0.14283351	-1.101338	0.065054776	0.058329037	-1.5769329	0.087295994	-0.06121823	-1.0730726	0.10113931	-0.016251056	-1.6643356	0.042196452	-0.099585054	-1.1322605	0.030889401	-0.0046806943	-1.4593939	0.43185601	-0.17499556	-1.1714025	0.45690728	0.10081274	-1.45576	0.40675832	-0.053733129	-1.1475392	0.46835661	-0.026622432	-1.3694515	0.81515032	-0.23043308	-1.3250982	0.84555594	0.15031289	-1.2919533	0.91688479	-0.17659087	-1.2644866	0.93833392	0.067117397	-1.4742783	0.93687979	-0.032077161	-1.2840325	1.3798363	-0.22804894	-1.3153143	1.3924711	0.095482658	-1.3777638	1.4261261	-0.078702659	-1.3954045	1.0469488	-0.3009247	-1.4962947	1.0932533	0.14406276	-1.2087747	0.88251356	-0.28493321	-1.424453	0.88486607	0.25189134
3	0.008	-1.4605129	0.03872351	-0.1274672	-0.94928349	0.077977572	0.054783291	-1.5946931	0.067597442	-0.14291289	-1.0878342	0.065310003	0.059451119	-1.5770085	0.087544635	-0.061157657	-1.0607624	0.10160523	-0.015528467	-1.6643122	0.04296612	-0.099550105	-1.1188965	0.03077071	-0.0035150937	-1.4573702	0.43129488	-0.17505695	-1.1662262	0.45551944	0.10126372	-1.4531779	0.40619468	-0.053902724	-1.1428802	0.4666834	-0.026539995	-1.365151	0.81414069	-0.23068609	-1.3197816	0.84430097	0.15017866	-1.287523	0.91585731	-0.17683247	-1.2594647	0.93736942	0.066736825	-1.4695397	0.93549837	-0.031677847	-1.2796125	1.3788178	-0.2278304	-1.310779	1.390977	0.095680306	-1.3733296	1.4249578	-0.078415444	-1.3894428	1.0456673	-0.30129297	-1.4923154	1.0918603	0.14337868	-1.2014092	0.8825818	-0.28520191	-1.4211552	0.88349248	0.25161302
4	0.012	-1.4607983	0.038667119	-0.12713713	-0.93640971	0.079491793	0.054787798	-1.5944413	0.067942159	-0.14295865	-1.0744987	0.065768151	0.060607732	-1.5770532	0.087825937	-0.061101209	-1.0487941	0.10215724	-0.014799007	-1.6642727	0.043797288	-0.099525617	-1.1057657	0.030768121	-0.0022596444	-1.4552196	0.43070857	-0.17519659	-1.1610659	0.45417208	0.10174512	-1.4505732	0.40563327	-0.054046409	-1.1382144	0.46498954	-0.026415398	-1.3608136	0.81312161	-0.23091936	-1.3143385	0.843036	0.15008954	-1.283074	0.91481281	-0.17705823	-1.2543558	0.93636909	0.066401172	-1.4647695	0.93410706	-0.031281113	-1.2751904	1.3778057	-0.22758545	-1.3063045	1.3894712	0.095917621	-1.3688455	1.4238003	-0.07809226	-1.383562	1.0443357	-0.30210504	-1.4882662	1.0904747	0.14273971	-1.1940683	0.88264655	-0.28543665	-1.4180404	0.88203667	0.25125464
5	0.016	-1.4611494	0.038603657	-0.12673341	-0.92361248	0.081150622	0.054672839	-1.5944498	0.068363434	-0.14291078	-1.0615684	0.066313502	0.061734501	-1.5770751	0.088139271	-0.061042392	-1.037228	0.10278198	-0.014070357	-1.6642131	0.04469785	-0.09951312	-1.0930191	0.030866645	-0.00096264404	-1.4528948	0.43014929	-0.17536613	-1.1559161	0.4529017	0.10225026	-1.4479124	0.40510904	-0.054179981	-1.1335268	0.46330089	-0.026234144	-1.356459	0.81209374	-0.23112577	-1.308838	0.84175251	0.15001925	-1.2786722	0.91374293	-0.17730978	-1.2491958	0.9353303	0.066081953	-1.459998	0.93270378	-0.03091371	-1.2707503	1.3767918	-0.22731965	-1.3018156	1.3879687	0.096192603	-1.3643134	1.4226559	-0.077726394	-1.3777339	1.0429554	-0.30326516	-1.484124	1.0891151	0.14215147	-1.1867958	0.88270501	-0.28563674	-1.4150519	0.88051398	0.25085578
6	0.02	-1.4613538	0.03855683	-0.12650969	-0.91085491	0.083001148	0.054357548	-1.5945131	0.068862056	-0.1427938	-1.0491595	0.066845665	0.062803346	-1.577054	0.088488167	-0.060983909	-1.0260458	0.10344812	-0.013340422	-1.6641312	0.045667912	-0.099512813	-1.0807357	0.031015934	0.00033426524	-1.4504072	0.42963906	-0.17553388	-1.1507099	0.45172252	0.10278399	-1.4452087	0.40461827	-0.05430808	-1.1288006	0.46166038	-0.025978699	-1.3521009	0.81106988	-0.23133773	-1.3033351	0.84045365	0.14994708	-1.2743415	0.91265341	-0.17760418	-1.2439699	0.93426027	0.065767724	-1.4552157	0.93134408	-0.030543971	-1.2662827	1.3757777	-0.2270404	-1.2972471	1.3864811	0.096499913	-1.3597385	1.4215255	-0.077317541	-1.3718689	1.0415529	-0.30439659	-1.4798931	1.0877941	0.14161053	-1.1795993	0.8827612	-0.28580027	-1.4121175	0.8789478	0.25044735
